<svg xmlns="http://www.w3.org/2000/svg" viewBox="0 0 100 100"><rect width="100" height="100" rx="24" fill="#26121A"/><path d="M14 25h72" stroke="#FFFFFF" stroke-width="3" stroke-linecap="round" stroke-dasharray="0.1 5.5"/><circle cx="26.0" cy="45.0" r="8.5" fill="#8C1428"/><circle cx="50.0" cy="45.0" r="8.5" fill="#8C1428"/><circle cx="74.0" cy="45.0" r="8.5" fill="#8C1428"/><circle cx="26.0" cy="69.0" r="8.5" fill="#8C1428"/><circle cx="50.0" cy="69.0" r="8.5" fill="#8C1428"/><circle cx="74.0" cy="69.0" r="10" fill="#FFC72C"/><g transform="translate(74.0 69.0) scale(1.111) translate(-12 -12)" fill="none" stroke="#26121A" stroke-width="1.62" stroke-linecap="round"><path d="M12 12a8 8 0 0 0 8 4"/><path d="M7.5 13.5a12 12 0 0 0 8.5 6.5"/><g transform="rotate(120 12 12)"><path d="M12 12a8 8 0 0 0 8 4"/><path d="M7.5 13.5a12 12 0 0 0 8.5 6.5"/></g><g transform="rotate(240 12 12)"><path d="M12 12a8 8 0 0 0 8 4"/><path d="M7.5 13.5a12 12 0 0 0 8.5 6.5"/></g></g></svg>